# xmcd
#
# Track frame offsets:
#	150
#	10690
#	24487
#	41362
#	55162
#	66357
#	79910
#	94020
#	104062
#	115937
#	127542
#	140322
#	161310
#	173172
#	187245
#
# Disc length: 2714 seconds
#
# Revision: 1
# Processed by: cddbd v1.5.1PL2 Copyright (c) Steve Scherf et al.
# Submitted via: audiograbber 1.83.01
#
DISCID=bd0a980f
DTITLE=varius - American Legends V1
DYEAR=1995
DGENRE=Pop-Folk
TTITLE0=Louis Armstrong - What A Wonderful World
TTITLE1=Frank Sinatra - Three Coins In The Fountain
TTITLE2=Ray Charles - Georgia On My Mind
TTITLE3=Marilyn Monroe - I Wanna Be Loved By You
TTITLE4=Benny Goodman - Stompin´ At The Savoy
TTITLE5=Harry James - Ciribiribin
TTITLE6=The Andre Sisters - Beimir Bist Du Schoen
TTITLE7=Bill Haley - Rock Around The Clock
TTITLE8=The Platers - Only You
TTITLE9=Bing Crosby - True Love
TTITLE10=Dean Martin - Everybody Loves Somebody
TTITLE11=Paul Anka - My Way
TTITLE12=Andy Williams - A Summer Place
TTITLE13=Harry Belafonte - Bannana Boat
TTITLE14=Glenn Miller - American Patrol
EXTD=American Legends\n1995 varius artist\n
EXTT0=
EXTT1=
EXTT2=
EXTT3=
EXTT4=
EXTT5=
EXTT6=
EXTT7=
EXTT8=
EXTT9=
EXTT10=
EXTT11=
EXTT12=
EXTT13=
EXTT14=
PLAYORDER=
